<svg xmlns="http://www.w3.org/2000/svg" viewBox="0 0 744.46 96.4"><g id="Layer_2" data-name="Layer 2"><g id="Layer_1-2" data-name="Layer 1"><path d="M84.43,67.44c0,8.88-5.92,23.68-10.55,23.68-1.8,0-3-1.41-3-3.73a46.59,46.59,0,0,1-26.13,7.73C20.46,95.12,0,75.17,0,47.75,0,20.08,20.46,0,45.31,0,56.5,0,66.8,4.25,73.11,9.4c.12-3.22,1.41-5.54,3.34-5.54,4.64,0,7.21,13.64,7.21,22.52,0,7.86-1.8,11.07-4.12,11.07-3,0-3.73-3.86-5.79-11.58C70.79,14.8,57,7.72,45.43,7.72c-19.17,0-31.92,15.06-31.92,36,0,21.75,14.42,42.09,35.91,42.09,10.69,0,20.73-4.64,25.62-13.26,2.7-4.63,3.86-10.68,6.43-10.68C83.4,61.91,84.43,63.71,84.43,67.44Z"/><path d="M94,89.58c0-2.32,2.7-3,8.11-3.22,1.28-.64,1.54-4.37,1.54-14.8v-17c0-6.43-.26-14.41-1.67-15.57-7.47-.26-9.14-1.55-9.14-3.22,0-1.16.77-2.06,2.44-3,4.12-1.93,13.13-4,16.22-4s3.86,2.06,3.86,5.79c0,4.51-.13,12.1-.13,22V71.56c0,9.27.26,14,1.42,14.8,5.53.39,8.24.9,8.24,3.22,0,3.09-5.92,4.12-15.58,4.12S94,92.54,94,89.58Zm6.3-80.31c0-5,4.25-7.6,8.63-7.6,4.63,0,7.72,3,7.72,7.47,0,5.15-4.25,7.46-8.49,7.46C103.35,16.6,100.26,13.9,100.26,9.27Z"/><path d="M176.59,81.6c0,4.12-9.65,12.61-22.27,12.61-9.78,0-16-5-16-16.34V37.45h-4.12c-2.57,0-4.37-1.15-4.37-3.34,0-2.83,3.6-6.31,7.59-9.91,3.22-3,6.57-5.92,9.27-5.92,1.93,0,3.22,1.41,3.22,4v8h18.66c4.25,0,6.56.51,6.56,3.34s-1.41,3.74-6.56,3.74H150V73.24c0,7.85,2.18,11.71,9,11.71,8,0,12.61-5.67,15.44-5.67A2.21,2.21,0,0,1,176.59,81.6Z"/><path d="M230.39,36.81c0,4.89-3,7.72-6.56,7.72a7.19,7.19,0,0,1-5.54-2.7c-1-1.16-1.93-2.45-4.12-2.45-4.76,0-12.74,7.21-12.74,20.86V71.56c0,9.14.51,14,1.67,14.67,8.11.26,10.81,1,10.81,3.35,0,3.09-6.17,4.12-18.14,4.12-10,0-15.58-1.16-15.58-4.12,0-2.32,2.71-3,8.11-3.22,1.29-.64,1.55-4.12,1.55-14.8V54.7c0-6.31-.26-14.41-1.55-15.44-7.46-.26-9.14-1.55-9.14-3.22,0-1.29.65-2.19,2.45-3C185.73,31,194.74,29,197.83,29s3.86,2.06,3.86,5.79c0,2.45-.13,5.92-.13,10.17,4.37-11.07,13.26-16.73,19.69-16.73C226,28.19,230.39,31.15,230.39,36.81Z"/><path d="M309.16,87.14c0,1.15-.52,2.18-2.45,3-4.24,2.18-12.87,4.11-16.09,4.11-3,0-3.73-2-3.73-5.79,0-2.31,0-5.4.13-9.26-4.38,10.42-13.26,16-23.55,16-11.33,0-21-6.44-21-24.46V54.06c0-6.18-.13-14.68-1.55-15.7-6.95-.26-9-1.81-9-3.61,0-1.29.9-2.19,2.71-2.83a57.79,57.79,0,0,1,15.57-3c3.35,0,4.12,2.06,4.12,5.79,0,4.51-.26,11.84-.26,21.62V66.54c0,12.36,3.22,19.82,14,19.82,8.37,0,17.76-5.92,18.92-21.36V54.06c0-6.31-.26-14.68-1.67-15.7-7.47-.26-9.53-1.81-9.53-3.61,0-1.29,1-2.19,2.83-2.83a60.47,60.47,0,0,1,16.09-3c3.35,0,4.12,1.8,4.12,5.79,0,4.51-.26,12.1-.26,21.75V68.6c0,7,.26,14.42,1.55,15.32C307.61,84.17,309.16,85.46,309.16,87.14Z"/><path d="M369.78,74.91c0,12.23-11.07,20.21-25.23,20.21a31.55,31.55,0,0,1-17.89-5.28,6.17,6.17,0,0,1,.13,1.54c0,1.68-.9,3.35-2.7,3.35-4.25,0-8.62-11.71-8.62-19,0-4.12,1.15-5.66,3-5.66,2.31,0,3,3.09,4.63,6.43,3.35,6.7,11.45,12.36,20.72,12.36,7.34,0,15.06-3.22,15.06-11.2,0-8.88-8.88-9.78-18.53-11.58C329.5,64.1,316.5,61.14,316.5,47.62c0-12.35,11.45-19.56,23.68-19.56,5.79,0,12.23,1.41,16.73,4.37a4.29,4.29,0,0,1-.13-1.28c0-1.68.9-3.22,2.45-3.22,3.86,0,8.1,11.33,8.1,18.15,0,3.47-1.28,4.89-2.95,4.89-1.94,0-2.84-1.93-4.51-5.66-3.09-6.57-10.55-11.07-18.92-10.94-8,0-13.51,4.37-13.51,10.55,0,7.72,7.72,8.49,17.11,10.3C356,57.28,369.78,60.36,369.78,74.91Z"/><path d="M481.89,70.15c0,9.65-5,26.25-10.3,26.25-1.93,0-3-1.28-3.22-3.34h-44c-10.29,0-16.21-.78-16.21-4,0-2.58,3-3.22,10.55-3.48,1.42-.9,1.67-4.25,1.67-14.67V24.2c0-7.73-.25-14.29-1.67-15.06-7.21-.26-10-.9-10-3.48,0-3.21,6.44-4.24,18-4.24,12.23,0,18.79,1.15,18.79,4.24,0,2.58-3,3.22-10.68,3.48-1.42.64-1.8,4.12-1.8,15.06V69.89c0,9.39.51,14.93,2.7,15.57h10.17c11.07,0,22-1.29,24.07-3.22,1.16-1.28,2.06-5,3-8.1,1.93-7.6,3.09-10.94,5.53-10.94C480.6,63.2,481.89,65.9,481.89,70.15Z"/><path d="M487.42,61.78c0-20.08,14.42-34,34.5-34,19,0,32.69,14,32.69,33.34,0,20.46-15.19,34-34.5,34S487.42,81.09,487.42,61.78Zm55.35,4c0-16.09-9.91-31.66-24.33-31.66-10.94,0-19.31,9-19.31,23,0,16.09,9.66,31.53,24.33,31.53C534.53,88.68,542.77,79.67,542.77,65.77Z"/><path d="M628.23,33.33c0,2.32-2.57,2.84-7.47,3.22-1.8.9-3,4-5,9.27-6.56,17.38-9.78,25.87-16.6,41.44-2.32,5.28-3.35,7.21-7.34,7.21-3.6,0-4.89-2.31-7.33-7.21C579.83,78.13,571,55.73,566.58,44.4c-2.19-5.14-2.83-6.56-4-7.72-4.76-.26-7.34-1-7.34-3.22,0-3,5.54-4.37,16.22-4.37,10.42,0,15.7,1.41,15.7,4.5,0,2.19-2.7,2.83-8.88,3.09-.64,1.8.9,7.6,2.7,13a318,318,0,0,0,13.65,32.18,305.88,305.88,0,0,0,13-33.34c1.28-4.12,2.83-10.42,2.06-12-6.44-.38-9.14-.9-9.14-3.22,0-2.83,5.92-4.24,14.54-4.24C623.08,29.09,628.23,30.63,628.23,33.33Z"/><path d="M686.67,76.07c0,2.06-1.55,5.27-4.25,8.49-4.51,5.28-12.74,10.56-24.2,10.56-17.76,0-29.73-13.26-29.73-32.31,0-20.72,14.41-35,32-35,15.7,0,25.74,11.07,25.74,22.4,0,5.53-2.57,9.13-7.21,9.13H639.56c.26,14.81,8.62,25.23,22.39,25.23,9.53,0,15.32-5,19-9,1.29-1.29,2.06-2.19,3.35-2.19S686.67,74.39,686.67,76.07ZM639.94,53.16l30-.39c3.61,0,5.54-1.42,5.54-4.89,0-7.08-5.92-13.9-15.83-13.9C649.08,34,641.75,41.57,639.94,53.16Z"/><path d="M744.46,36.81c0,4.89-3,7.72-6.57,7.72a7.19,7.19,0,0,1-5.53-2.7c-1-1.16-1.93-2.45-4.12-2.45-4.76,0-12.74,7.21-12.74,20.86V71.56c0,9.14.51,14,1.67,14.67,8.11.26,10.81,1,10.81,3.35,0,3.09-6.18,4.12-18.15,4.12-10,0-15.57-1.16-15.57-4.12,0-2.32,2.7-3,8.11-3.22,1.29-.64,1.54-4.12,1.54-14.8V54.7c0-6.31-.25-14.41-1.54-15.44-7.47-.26-9.14-1.55-9.14-3.22,0-1.29.65-2.19,2.45-3C699.79,31,708.8,29,711.89,29s3.86,2.06,3.86,5.79c0,2.45-.12,5.92-.12,10.17,4.37-11.07,13.25-16.73,19.69-16.73C740.08,28.19,744.46,31.15,744.46,36.81Z"/></g></g></svg>